<svg width="50" height="50" viewBox="0 0 50 50" fill="none" xmlns="http://www.w3.org/2000/svg">
<ellipse opacity="0.1" cx="25" cy="25.1022" rx="25" ry="24.538" fill="#212353"/>
<path d="M25.0018 20.6986C22.7316 20.6986 20.9005 22.4364 20.9005 24.5908C20.9005 26.7453 22.7316 28.4831 25.0018 28.4831C27.2719 28.4831 29.1031 26.7453 29.1031 24.5908C29.1031 22.4364 27.2719 20.6986 25.0018 20.6986ZM25.0018 27.1213C23.5347 27.1213 22.3354 25.9865 22.3354 24.5908C22.3354 23.1952 23.5312 22.0603 25.0018 22.0603C26.4724 22.0603 27.6682 23.1952 27.6682 24.5908C27.6682 25.9865 26.4688 27.1213 25.0018 27.1213ZM30.2274 20.5394C30.2274 21.0441 29.7991 21.4472 29.2708 21.4472C28.739 21.4472 28.3142 21.0407 28.3142 20.5394C28.3142 20.038 28.7426 19.6315 29.2708 19.6315C29.7991 19.6315 30.2274 20.038 30.2274 20.5394ZM32.9438 21.4608C32.8831 20.2446 32.5904 19.1674 31.6516 18.2799C30.7165 17.3923 29.5814 17.1146 28.2999 17.0536C26.9793 16.9825 23.0207 16.9825 21.7001 17.0536C20.4222 17.1112 19.2871 17.389 18.3484 18.2765C17.4096 19.164 17.1205 20.2412 17.0562 21.4574C16.9813 22.7107 16.9813 26.4675 17.0562 27.7209C17.1169 28.937 17.4096 30.0142 18.3484 30.9018C19.2871 31.7893 20.4186 32.0671 21.7001 32.128C23.0207 32.1992 26.9793 32.1992 28.2999 32.128C29.5814 32.0705 30.7165 31.7927 31.6516 30.9018C32.5868 30.0142 32.8795 28.937 32.9438 27.7209C33.0187 26.4675 33.0187 22.7141 32.9438 21.4608ZM31.2376 29.0657C30.9592 29.7297 30.4202 30.2412 29.717 30.5088C28.664 30.9052 26.1654 30.8137 25.0018 30.8137C23.8381 30.8137 21.336 30.9018 20.2866 30.5088C19.5869 30.2446 19.048 29.7331 18.766 29.0657C18.3484 28.0664 18.4447 25.6952 18.4447 24.5908C18.4447 23.4865 18.3519 21.1118 18.766 20.1159C19.0444 19.452 19.5834 18.9404 20.2866 18.6728C21.3395 18.2765 23.8381 18.368 25.0018 18.368C26.1654 18.368 28.6676 18.2799 29.717 18.6728C30.4166 18.9371 30.9556 19.4486 31.2376 20.1159C31.6552 21.1152 31.5588 23.4865 31.5588 24.5908C31.5588 25.6952 31.6552 28.0698 31.2376 29.0657Z" fill="white"/>
</svg>
