<svg width="50" height="50" viewBox="0 0 50 50" fill="none" xmlns="http://www.w3.org/2000/svg">
<ellipse opacity="0.1" cx="25" cy="25.1022" rx="25" ry="24.538" fill="#212353"/>
<path fill-rule="evenodd" clip-rule="evenodd" d="M24.9096 22.4208L24.8699 21.8025C24.7511 20.2 25.7939 18.7364 27.4438 18.1686C28.051 17.9667 29.0805 17.9415 29.7537 18.1181C30.0177 18.1939 30.5193 18.4462 30.8756 18.6733L31.5224 19.0897L32.2352 18.8752C32.6312 18.7616 33.1592 18.5724 33.3967 18.4462C33.6211 18.3326 33.8191 18.2695 33.8191 18.3074C33.8191 18.5219 33.3307 19.2537 32.9216 19.6574C32.3672 20.2253 32.5256 20.2757 33.6475 19.8972C34.3207 19.6827 34.3338 19.6827 34.2019 19.9224C34.1226 20.0486 33.7135 20.4902 33.2779 20.894C32.5387 21.588 32.4992 21.6637 32.4992 22.2441C32.4992 23.1399 32.0504 25.0073 31.6016 26.0294C30.77 27.9473 28.9881 29.9282 27.2062 30.925C24.6984 32.3256 21.3589 32.6789 18.5475 31.8587C17.6103 31.5811 16 30.8745 16 30.7484C16 30.7105 16.4883 30.66 17.0824 30.6475C18.3231 30.6222 19.5638 30.2941 20.6197 29.7137L21.3326 29.31L20.5142 29.045C19.3526 28.6664 18.3099 27.7958 18.0459 26.9757C17.9667 26.7107 17.9931 26.6981 18.7323 26.6981L19.4978 26.6855L18.8511 26.3953C18.0855 26.0294 17.3859 25.4111 17.0427 24.7802C16.7919 24.326 16.4752 23.1778 16.5676 23.0895C16.5939 23.0517 16.8712 23.1273 17.188 23.2282C18.0987 23.5437 18.2175 23.468 17.6895 22.938C16.6995 21.9791 16.396 20.5533 16.8712 19.2032L17.0956 18.5976L17.9667 19.4177C19.7486 21.0706 21.8473 22.0549 24.2496 22.3451L24.9096 22.4208Z" fill="white"/>
</svg>
